<?xml version="1.0" encoding="UTF-8" standalone="no"?>
<!DOCTYPE svg PUBLIC "-//W3C//DTD SVG 1.1//EN" "http://www.w3.org/Graphics/SVG/1.1/DTD/svg11.dtd">
<svg width="100%" height="100%" viewBox="0 0 400 300" version="1.1" xmlns="http://www.w3.org/2000/svg" xmlns:xlink="http://www.w3.org/1999/xlink" xml:space="preserve" xmlns:serif="http://www.serif.com/" style="fill-rule:evenodd;clip-rule:evenodd;stroke-linejoin:round;stroke-miterlimit:2;">
    <g transform="matrix(4,0,0,4,0,0)">
        <path d="M15.05,61.3L10.75,61.3L10.19,64.15L13.87,64.15L13.64,65.33L9.95,65.33L9.36,68.26L13.75,68.26L13.51,69.44L7.76,69.44L9.64,60.12L15.29,60.12L15.05,61.3Z" style="fill:rgb(134,40,128);"/>
    </g>
    <g transform="matrix(4,0,0,4,0,0)">
        <path d="M18.67,66.1L20.21,69.44L18.74,69.44L17.77,67.09L15.99,69.44L14.43,69.44L17.23,66.01L15.75,62.8L17.21,62.8L18.11,65.03L19.78,62.8L21.32,62.8L18.67,66.1Z" style="fill:rgb(134,40,128);"/>
    </g>
    <g transform="matrix(4,0,0,4,0,0)">
        <path d="M27.25,66.11C27.15,67.103 26.769,68.047 26.15,68.83C25.695,69.29 25.067,69.54 24.42,69.52C23.786,69.558 23.181,69.242 22.85,68.7L22.16,72.11L20.89,72.11L22.75,62.8L24,62.8L23.84,63.51C24.265,62.991 24.909,62.699 25.58,62.72C25.624,62.717 25.668,62.715 25.712,62.715C26.661,62.715 27.442,63.496 27.442,64.445C27.442,64.537 27.435,64.629 27.42,64.72C27.418,65.204 27.364,65.687 27.26,66.16L27.25,66.11ZM25.13,63.85C23.99,63.85 23.6,64.85 23.36,66.11C23.279,66.485 23.229,66.867 23.21,67.25C23.21,67.81 23.38,68.39 24.21,68.39C25.34,68.39 25.74,67.39 25.98,66.11C26.057,65.744 26.103,65.373 26.12,65C26.12,64.43 25.94,63.85 25.13,63.85Z" style="fill:rgb(134,40,128);"/>
    </g>
    <g transform="matrix(4,0,0,4,0,0)">
        <path d="M32.84,64.3C32.654,64.025 32.342,63.859 32.01,63.86C31.17,63.917 30.484,64.573 30.39,65.41L29.57,69.41L28.31,69.41L29.62,62.77L30.86,62.77L30.71,63.51C31.146,62.978 31.803,62.676 32.49,62.69C33.033,62.665 33.556,62.899 33.9,63.32L32.84,64.3Z" style="fill:rgb(134,40,128);"/>
    </g>
    <g transform="matrix(4,0,0,4,0,0)">
        <path d="M39.11,66.48L35,66.48C34.965,66.692 34.945,66.906 34.94,67.12C34.933,67.171 34.93,67.223 34.93,67.274C34.93,67.916 35.458,68.444 36.1,68.444C36.133,68.444 36.167,68.443 36.2,68.44C36.849,68.442 37.471,68.178 37.92,67.71L38.63,68.55C37.946,69.208 37.029,69.568 36.08,69.55C36.015,69.556 35.95,69.559 35.885,69.559C34.694,69.559 33.715,68.579 33.715,67.389C33.715,67.339 33.717,67.29 33.72,67.24C33.72,65.13 34.72,62.76 37.04,62.76C37.074,62.758 37.108,62.758 37.142,62.758C38.327,62.758 39.302,63.733 39.302,64.918C39.302,64.945 39.301,64.973 39.3,65C39.283,65.485 39.22,65.967 39.11,66.44L39.11,66.48ZM37,63.77C36.17,63.77 35.52,64.34 35.18,65.6L38,65.6C38.029,65.415 38.046,65.228 38.05,65.04C38.09,64.19 37.6,63.77 37,63.77Z" style="fill:rgb(134,40,128);"/>
    </g>
    <g transform="matrix(4,0,0,4,0,0)">
        <path d="M44.84,64.28C44.46,63.924 43.95,63.74 43.43,63.77C42.43,63.77 42.04,64.31 42.04,64.77C42.04,65.23 42.3,65.33 42.82,65.41L43.7,65.54C44.88,65.72 45.31,66.27 45.31,67.21C45.304,67.789 45.057,68.34 44.63,68.73C43.976,69.249 43.153,69.509 42.32,69.46C41.381,69.525 40.463,69.156 39.83,68.46L40.74,67.64C41.155,68.129 41.781,68.39 42.42,68.34C43.53,68.34 44.04,67.77 44.04,67.26C44.04,66.75 43.74,66.65 43.27,66.57L42.39,66.44C41.1,66.24 40.77,65.57 40.77,64.97C40.765,64.377 40.995,63.805 41.41,63.38C42.003,62.855 42.78,62.585 43.57,62.63C44.36,62.584 45.135,62.866 45.71,63.41L44.84,64.28Z" style="fill:rgb(134,40,128);"/>
    </g>
    <g transform="matrix(4,0,0,4,0,0)">
        <path d="M50.94,64.28C50.569,63.923 50.064,63.738 49.55,63.77C48.55,63.77 48.15,64.31 48.15,64.77C48.15,65.23 48.41,65.33 48.93,65.41L49.8,65.54C50.98,65.72 51.42,66.27 51.42,67.21C51.414,67.791 51.163,68.343 50.73,68.73C50.08,69.25 49.26,69.51 48.43,69.46C47.489,69.523 46.568,69.155 45.93,68.46L46.85,67.64C47.267,68.132 47.897,68.393 48.54,68.34C49.63,68.34 50.15,67.77 50.15,67.26C50.15,66.75 49.85,66.65 49.37,66.57L48.5,66.44C47.21,66.24 46.88,65.57 46.88,64.97C46.879,64.377 47.109,63.807 47.52,63.38C48.113,62.855 48.89,62.585 49.68,62.63C50.47,62.584 51.245,62.866 51.82,63.41L50.94,64.28Z" style="fill:rgb(134,40,128);"/>
    </g>
    <g transform="matrix(4,0,0,4,0,0)">
        <path d="M61.59,62.86C61.59,61.86 61.1,61.22 60.14,61.22C59.56,61.223 59.006,61.466 58.61,61.89C58.16,62.34 57.93,63.05 57.61,64.78C57.454,65.464 57.354,66.16 57.31,66.86C57.309,66.881 57.309,66.902 57.309,66.923C57.309,67.696 57.945,68.333 58.719,68.333C58.749,68.333 58.78,68.332 58.81,68.33C59.784,68.29 60.63,67.633 60.91,66.7L62.3,66.7C61.894,68.338 60.417,69.5 58.73,69.51C58.67,69.514 58.61,69.516 58.55,69.516C57.151,69.516 56,68.365 56,66.966C56,66.958 56,66.949 56,66.94C56.04,66.212 56.144,65.49 56.31,64.78C56.67,62.78 56.89,61.9 57.71,61.09C58.363,60.418 59.253,60.027 60.19,60C60.251,59.996 60.311,59.994 60.372,59.994C61.787,59.994 62.952,61.158 62.952,62.574C62.952,62.656 62.948,62.738 62.94,62.82L61.59,62.86Z" style="fill:rgb(134,40,128);"/>
    </g>
    <g transform="matrix(4,0,0,4,0,0)">
        <path d="M69,66.11C68.903,67.108 68.473,68.045 67.78,68.77C67.238,69.272 66.519,69.542 65.78,69.52C65.739,69.522 65.697,69.524 65.656,69.524C64.52,69.524 63.586,68.589 63.586,67.454C63.586,67.409 63.587,67.365 63.59,67.32C63.601,66.913 63.647,66.508 63.73,66.11C63.822,65.118 64.249,64.187 64.94,63.47C65.485,62.971 66.202,62.702 66.94,62.72C66.981,62.718 67.023,62.716 67.064,62.716C68.2,62.716 69.134,63.651 69.134,64.786C69.134,64.831 69.133,64.875 69.13,64.92C69.113,65.319 69.069,65.717 69,66.11ZM66.81,63.85C66.434,63.859 66.075,64.013 65.81,64.28C65.355,64.79 65.071,65.43 65,66.11C64.92,66.478 64.876,66.853 64.87,67.23C64.861,67.284 64.857,67.338 64.857,67.392C64.857,67.941 65.308,68.392 65.857,68.392C65.878,68.392 65.899,68.391 65.92,68.39C66.299,68.384 66.659,68.225 66.92,67.95C67.37,67.435 67.646,66.791 67.71,66.11C67.785,65.748 67.828,65.38 67.84,65.01C67.849,64.956 67.854,64.901 67.854,64.846C67.854,64.297 67.402,63.846 66.854,63.846C66.822,63.846 66.791,63.847 66.76,63.85L66.81,63.85Z" style="fill:rgb(134,40,128);"/>
    </g>
    <g transform="matrix(4,0,0,4,0,0)">
        <path d="M75,69.44L73.8,69.44L73.92,68.74C73.452,69.258 72.778,69.544 72.08,69.52C72.061,69.521 72.043,69.521 72.024,69.521C71.081,69.521 70.304,68.744 70.304,67.801C70.304,67.754 70.306,67.707 70.31,67.66C70.316,67.424 70.347,67.19 70.4,66.96L71.23,62.8L72.5,62.8L71.69,66.87C71.651,67.041 71.631,67.215 71.63,67.39C71.627,67.418 71.626,67.446 71.626,67.474C71.626,67.979 72.041,68.394 72.546,68.394C72.574,68.394 72.602,68.393 72.63,68.39C73.494,68.383 74.218,67.711 74.29,66.85L75.08,62.85L76.36,62.85L75,69.44Z" style="fill:rgb(134,40,128);"/>
    </g>
    <g transform="matrix(4,0,0,4,0,0)">
        <path d="M81.59,64.3C81.402,64.022 81.086,63.856 80.75,63.86C79.913,63.925 79.232,64.577 79.13,65.41L78.32,69.41L77.05,69.41L78.37,62.77L79.61,62.77L79.46,63.51C79.898,62.981 80.553,62.678 81.24,62.69C81.782,62.667 82.305,62.901 82.65,63.32L81.59,64.3Z" style="fill:rgb(134,40,128);"/>
    </g>
    <g transform="matrix(4,0,0,4,0,0)">
        <path d="M83.76,69.44L82.48,69.44L83.82,62.8L85.09,62.8L83.76,69.44ZM85.4,61.33L84,61.33L84.23,60.18L85.59,60.18L85.4,61.33Z" style="fill:rgb(134,40,128);"/>
    </g>
    <g transform="matrix(4,0,0,4,0,0)">
        <path d="M91.38,66.48L87.27,66.48C87.227,66.691 87.204,66.905 87.2,67.12C87.195,67.164 87.193,67.209 87.193,67.253C87.193,67.906 87.73,68.443 88.383,68.443C88.412,68.443 88.441,68.442 88.47,68.44C89.116,68.443 89.735,68.179 90.18,67.71L90.89,68.55C90.212,69.204 89.302,69.564 88.36,69.55C88.298,69.555 88.235,69.558 88.173,69.558C86.977,69.558 85.993,68.574 85.993,67.378C85.993,67.319 85.995,67.259 86,67.2C86,65.09 87,62.72 89.33,62.72C89.358,62.719 89.386,62.718 89.413,62.718C90.598,62.718 91.573,63.693 91.573,64.878C91.573,64.919 91.572,64.96 91.57,65C91.548,65.485 91.485,65.966 91.38,66.44L91.38,66.48ZM89.25,63.77C88.42,63.77 87.77,64.34 87.42,65.6L90.3,65.6C90.317,65.414 90.317,65.226 90.3,65.04C90.35,64.19 89.87,63.77 89.25,63.77Z" style="fill:rgb(134,40,128);"/>
    </g>
    <g transform="matrix(4,0,0,4,0,0)">
        <path d="M97,64.3C96.812,64.022 96.496,63.856 96.16,63.86C95.321,63.921 94.638,64.575 94.54,65.41L93.73,69.41L92.5,69.41L93.82,62.77L95.06,62.77L94.91,63.51C95.346,62.978 96.003,62.676 96.69,62.69C97.233,62.665 97.756,62.899 98.1,63.32L97,64.3Z" style="fill:rgb(134,40,128);"/>
    </g>
    <g transform="matrix(4,0,0,4,0,0)">
        <path d="M0,53.65C0,53.65 20.06,15.16 71.66,8.27L72,2.89L100,26.3C100,26.3 42.34,6.59 0,53.65Z" style="fill:rgb(134,40,128);"/>
    </g>
    <g transform="matrix(4,0,0,4,0,0)">
        <path d="M32.31,36.15L27.19,39.32C26.94,38.557 26.426,37.908 25.74,37.49C24.882,37.1 23.94,36.932 23,37C22.091,36.938 21.187,37.189 20.44,37.71C19.85,38.168 19.515,38.883 19.54,39.63C19.559,40.299 19.912,40.916 20.48,41.27C21.432,41.877 22.475,42.326 23.57,42.6C25.412,43.059 27.099,43.997 28.46,45.32C29.504,46.507 30.055,48.05 30,49.63C30.112,52.112 29.061,54.51 27.16,56.11C25.27,57.69 22.61,58.48 19.16,58.48C17.184,58.563 15.213,58.222 13.38,57.48C11.882,56.786 10.63,55.652 9.79,54.23L15,51C16.024,52.594 17.853,53.493 19.74,53.33C20.747,53.399 21.749,53.143 22.6,52.6C23.235,52.161 23.611,51.432 23.6,50.66C23.585,50.006 23.238,49.402 22.68,49.06C21.633,48.426 20.511,47.925 19.34,47.57C15.247,46.19 13.203,43.807 13.21,40.42C13.141,38.079 14.103,35.821 15.84,34.25C17.633,32.617 20.357,31.8 24.01,31.8C28.19,31.767 30.957,33.217 32.31,36.15Z" style="fill:rgb(238,104,37);fill-rule:nonzero;"/>
    </g>
    <g transform="matrix(4,0,0,4,0,0)">
        <path d="M37.69,53.66L35.47,58.1L28.58,58.1L42.66,32.1L48.66,32.1L52.66,58.1L46.24,58.1L45.71,53.66L37.69,53.66ZM45.11,48.46L44.21,40.79L40.33,48.46L45.11,48.46Z" style="fill:rgb(238,104,37);fill-rule:nonzero;"/>
    </g>
    <g transform="matrix(4,0,0,4,0,0)">
        <path d="M66,49.33L62.5,49.33L60.81,58.1L54.56,58.1L59.56,32.1L69.35,32.1C71.567,31.974 73.757,32.656 75.51,34.02C77.03,35.365 77.855,37.333 77.75,39.36C77.901,42.152 76.743,44.86 74.62,46.68C72.567,48.453 69.693,49.337 66,49.33ZM64.8,37.33L63.48,44.15L65.89,44.15C67.367,44.272 68.845,43.922 70.11,43.15C71.023,42.369 71.513,41.199 71.43,40C71.43,38.24 70.03,37.36 67.25,37.36L64.8,37.33Z" style="fill:rgb(238,104,37);fill-rule:nonzero;"/>
    </g>
    <g transform="matrix(4,0,0,4,0,0)">
        <path d="M86.18,50.05L80.31,58.1L73.31,58.1L83.17,44.51L79.17,32.13L85.83,32.13L88.09,39.54L93.09,32.13L100,32.13L91,44.89L95.67,58.1L89.12,58.1L86.18,50.05Z" style="fill:rgb(238,104,37);fill-rule:nonzero;"/>
    </g>
</svg>
